#!OML:ASF I:\Actors\actors\Patient Classification 2\Patient 1\Session 1\actor1.ASF
:FULLY-SPECIFIED
:DEGREES
760
root -0.628793 17.9301 4.34035 16.9698 -3.81672 -2.50647
lowerback 30.8515 0.960868 -0.0711701
upperback 3.22451 1.36596 1.29822
thorax -12.5715 0.634537 0.908726
lowerneck -22.9432 0.269233 0.694323
upperneck 5.00812 0.0538362 0.895274
head 5.12143 0.111916 0.18265
rclavicle -1.2921e-015 -1.98785e-016
rhumerus -39.0692 36.3708 -88.4218
rradius 64.1416
rwrist -16.6597
rhand -3.82218 -14.8808
rfingers 7.12502
rthumb 21.9247 -43.6585
lclavicle -1.2921e-015 -1.98785e-016
lhumerus -33.2131 -44.8672 100.117
lradius 63.5037
lwrist 23.5379
lhand -4.8694 -35.1377
lfingers 7.12502
lthumb 20.9189 -6.24568
rfemur -0.431803 -13.0462 20.5556
rtibia -32.4826
rfoot 9.44266 -19.2107
rtoes 1.77661
lfemur 1.71187 2.9381 -12.8581
ltibia -35.8216
lfoot 18.041 8.46413
ltoes -18.727
761
root -0.631899 17.9372 4.36036 16.7655 -3.8758 -2.56951
lowerback 30.4981 0.986532 0.00363223
upperback 3.18928 1.42279 1.29495
thorax -12.4578 0.657766 0.846561
lowerneck -22.969 0.188366 0.725122
upperneck 4.51112 -0.0624409 0.932318
head 4.96635 0.055398 0.1768
rclavicle 5.56597e-015 -3.37934e-015
rhumerus -38.6037 35.9512 -87.4513
rradius 63.1679
rwrist -15.6337
rhand -2.9799 -15.469
rfingers 7.12502
rthumb 22.7333 -44.1497
lclavicle 5.56597e-015 -3.37934e-015
lhumerus -32.8145 -44.6662 99.0551
lradius 62.4165
lwrist 21.7621
lhand -5.75702 -36.9151
lfingers 7.12502
lthumb 20.0659 -7.93124
rfemur -0.220054 -12.9605 20.5437
rtibia -32.2784
rfoot 9.28755 -19.098
rtoes 1.6667
lfemur 1.95957 2.97427 -12.7851
ltibia -35.6506
lfoot 17.8289 8.39455
ltoes -18.9129
762
root -0.636172 17.9447 4.38431 16.5149 -3.95674 -2.59254
lowerback 30.1727 1.02011 -0.00860376
upperback 3.11306 1.46176 1.29079
thorax -12.4035 0.677207 0.837216
lowerneck -22.9734 0.142517 0.723595
upperneck 4.02642 -0.130036 1.0432
head 4.81253 0.027461 0.204949
rclavicle -8.59744e-015 -1.09332e-015
rhumerus -38.1819 35.4408 -86.4423
rradius 62.1837
rwrist -14.6354
rhand -1.9253 -16.0496
rfingers 7.12502
rthumb 23.745 -44.6026
lclavicle -8.59744e-015 -1.09332e-015
lhumerus -32.3657 -44.1278 97.854
lradius 61.5838
lwrist 20.6306
lhand -5.58122 -37.1878
lfingers 7.12502
lthumb 20.2349 -8.2218
rfemur 0.0597074 -12.7921 20.4517
rtibia -32.0645
rfoot 9.01628 -19.0705
rtoes 1.94511
lfemur 2.24935 2.97888 -12.7455
ltibia -35.4348
lfoot 17.5454 8.40341
ltoes -18.6577
763
root -0.639374 17.9517 4.41026 16.251 -4.00246 -2.57637
lowerback 29.7582 1.01537 0.00192091
upperback 3.39429 1.45448 1.22955
thorax -12.6831 0.68513 0.844047
lowerneck -23.0224 0.126738 0.731652
upperneck 3.5811 -0.160509 1.15523
head 4.67801 0.0180378 0.235926
rclavicle -8.99501e-015 -3.77691e-015
rhumerus -37.7272 34.8497 -85.3818
rradius 61.1379
rwrist -13.4529
rhand -0.957475 -16.351
rfingers 7.12502
rthumb 24.673 -44.7803
lclavicle -8.99501e-015 -3.77691e-015
lhumerus -31.9878 -43.4654 96.587
lradius 60.831
lwrist 19.3586
lhand -5.28711 -37.167
lfingers 7.12502
lthumb 20.5175 -8.2312
rfemur 0.365417 -12.5952 20.2984
rtibia -31.8398
rfoot 8.63652 -19.1061
rtoes 2.09866
lfemur 2.53118 2.90611 -12.7399
ltibia -35.1864
lfoot 17.254 8.41781
ltoes -18.6199
764
root -0.643306 17.9575 4.43277 16.0003 -3.92258 -2.49592
lowerback 29.4391 0.946909 0.0671001
upperback 3.24165 1.38146 1.16834
thorax -12.6928 0.648592 0.766773
lowerneck -23.048 0.117117 0.828265
upperneck 3.14201 -0.198225 1.18142
head 4.54205 -0.000225821 0.224801
rclavicle 4.52235e-015 8.94531e-016
rhumerus -37.3007 34.2026 -84.342
rradius 60.0875
rwrist -12.2074
rhand -0.0331909 -16.5728
rfingers 7.12502
rthumb 25.5586 -44.8781
lclavicle 4.52235e-015 8.94531e-016
lhumerus -31.651 -42.9077 95.2215
lradius 60.1496
lwrist 18.4805
lhand -4.76656 -37.0396
lfingers 7.12502
lthumb 21.0177 -8.15849
rfemur 0.647133 -12.524 20.1094
rtibia -31.609
rfoot 8.29616 -19.1137
rtoes 1.99143
lfemur 2.73749 2.69145 -12.7721
ltibia -34.9163
lfoot 16.9852 8.42615
ltoes -18.7103
